<svg xmlns="http://www.w3.org/2000/svg" version="1.1" viewBox="0 0 309 489" width="309" height="489"><g stroke-width="2" fill="none" stroke-linecap="butt"><path stroke="#4b4a42" d="M 154.77 1.88 Q 154.64 6.89 153.17 10.93" data-c-stroke="4b4a42"/><path stroke="#7c684f" d="M 155.75 12.15 Q 154.95 17.10 155.41 21.98 Q 156.10 29.34 156.14 30.57 C 156.55 46.48 158.52 60.68 160.77 77.75 Q 161.20 80.96 163.26 91.25" data-c-stroke="7c684f"/><path stroke="#0f1012" d="M 163.26 91.25 Q 160.28 92.04 162.87 95.58 Q 163.23 96.08 163.26 96.68 Q 163.39 99.47 163.57 102.52 C 163.62 103.46 164.31 104.01 164.37 104.90 Q 164.59 107.98 165.60 111.07 Q 166.85 114.88 168.49 118.50 Q 169.19 120.05 169.44 121.65 Q 169.59 122.68 169.89 123.60 Q 173.90 135.81 178.38 144.51 Q 179.00 145.71 179.39 146.81 Q 179.99 148.46 180.71 149.85 Q 182.34 153.03 184.16 156.09 Q 187.07 160.98 189.59 165.43 Q 192.65 170.83 197.58 177.63 Q 198.77 179.27 200.17 180.74 Q 201.61 182.25 202.76 183.91 Q 204.27 186.11 206.35 188.30 Q 208.93 191.04 211.34 194.16 C 212.35 195.46 213.71 196.41 214.82 197.65 Q 215.99 198.95 217.46 200.00 Q 219.62 201.52 221.70 203.30 Q 222.72 204.18 224.42 204.95 A 1.02 1.02 0.0 0 1 224.50 206.76 Q 224.01 207.04 223.48 207.13 C 219.68 207.80 216.24 208.11 212.22 207.53 Q 195.59 205.13 184.03 193.36 Q 182.03 191.32 179.00 187.62 Q 176.51 184.58 174.74 180.97 Q 169.64 170.62 166.62 158.26 Q 165.76 154.72 164.34 151.83 Q 162.71 148.48 161.47 144.88 C 161.00 143.49 161.13 142.10 160.79 140.73 Q 160.28 138.66 160.21 137.68 Q 159.88 133.07 159.32 128.12 Q 159.14 126.52 157.97 125.39 Q 157.53 124.96 157.30 125.53 Q 157.16 125.90 157.16 126.50" data-c-stroke="0f1012"/><path stroke="#7c684f" d="M 157.16 126.50 Q 156.82 126.09 156.93 125.24 Q 157.01 124.60 156.84 124.08 Q 156.64 123.48 156.50 124.10 Q 156.13 125.77 156.54 127.75" data-c-stroke="7c684f"/><path stroke="#0f1012" d="M 156.54 127.75 L 155.97 123.91 Q 155.94 123.68 155.70 123.68 L 155.33 123.68 Q 155.11 123.68 155.11 123.90 Q 154.83 135.70 152.26 144.60 Q 150.10 152.13 147.06 160.28 C 143.47 169.92 137.74 178.97 131.05 186.65 C 124.55 194.10 113.97 199.58 104.72 202.36 Q 104.41 202.45 97.54 205.00 Q 92.72 206.79 87.03 207.20 Q 84.49 207.38 82.12 207.78 Q 79.69 208.18 77.40 208.12 Q 76.19 208.09 76.21 206.97 Q 76.22 206.54 75.80 206.45 L 74.18 206.12" data-c-stroke="0f1012"/><path stroke="#29455f" d="M 74.18 206.12 Q 87.52 198.62 95.79 189.79 Q 106.11 178.78 109.44 174.25 Q 122.02 157.18 130.49 137.75 Q 133.39 131.11 137.55 117.50 Q 140.72 107.14 142.01 101.17 C 142.28 99.93 142.97 98.90 143.16 97.71 Q 143.96 92.77 145.35 88.00 Q 146.69 83.40 147.28 78.96 Q 147.90 74.22 148.60 69.75 Q 149.08 66.62 149.06 63.54" data-c-stroke="29455f"/><path stroke="#203b55" d="M 74.18 206.12 Q 67.33 209.55 62.25 210.86 Q 56.31 212.41 47.21 213.56 Q 41.01 214.35 37.55 213.61 Q 33.70 212.78 30.00 212.28 Q 28.28 212.05 25.94 210.45" data-c-stroke="203b55"/><path stroke="#e0c8a5" d="M 189.48 159.04 Q 188.89 158.70 188.62 160.65" data-c-stroke="e0c8a5"/><path stroke="#725d46" d="M 188.62 160.65 Q 179.99 145.77 174.15 129.71 Q 172.46 125.05 170.76 120.40 Q 168.94 115.42 167.80 110.95 Q 165.38 101.50 163.26 91.25" data-c-stroke="725d46"/><path stroke="#736f67" d="M 188.62 160.65 Q 190.59 163.87 192.76 167.12 Q 195.87 171.77 198.92 176.09 C 204.52 184.02 210.89 191.65 218.52 197.85 C 224.02 202.32 229.36 206.98 235.42 210.17 Q 236.28 210.62 235.31 210.72 Q 215.83 212.69 201.46 225.68 Q 195.81 230.78 190.31 236.01" data-c-stroke="736f67"/><path stroke="#414039" d="M 190.31 236.01 L 188.55 236.35" data-c-stroke="414039"/><path stroke="#736f67" d="M 156.71 283.30 Q 156.64 289.03 156.27 294.75 C 155.91 300.22 155.90 305.41 156.14 310.71 Q 156.19 311.85 156.81 312.81 Q 157.18 313.39 157.26 312.70 Q 158.13 305.08 159.56 299.26 Q 160.01 297.45 158.91 296.81" data-c-stroke="736f67"/><path stroke="#725d46" d="M 159.98 295.45 Q 160.03 295.67 160.08 295.82 Q 160.23 296.30 160.64 296.00 Q 160.93 295.78 161.28 295.84 Q 161.81 295.93 161.83 296.47 L 161.87 297.50" data-c-stroke="725d46"/><path stroke="#736f67" d="M 161.87 297.50 Q 160.35 305.58 160.16 313.77 C 160.08 317.51 159.48 321.06 159.29 324.76 Q 159.10 328.62 158.50 332.81 Q 157.82 337.50 157.45 342.12" data-c-stroke="736f67"/><path stroke="#725d46" d="M 157.45 342.12 Q 156.92 344.35 156.60 346.54 Q 156.59 346.62 156.55 346.56 Q 156.52 346.52 156.49 346.49 Q 156.38 346.35 156.36 346.54 Q 156.14 348.03 155.94 349.55" data-c-stroke="725d46"/><path stroke="#414039" d="M 155.94 349.55 Q 155.52 361.27 155.82 373.01 Q 156.26 390.35 156.51 407.71" data-c-stroke="414039"/><path stroke="#725d46" d="M 156.51 407.71 L 156.80 420.34" data-c-stroke="725d46"/><path stroke="#736f67" d="M 156.80 420.34 L 156.67 430.67" data-c-stroke="736f67"/><path stroke="#414039" d="M 156.67 430.67 L 154.46 486.75" data-c-stroke="414039"/><path stroke="#725d46" d="M 156.54 127.75 L 156.42 136.80 Q 156.42 137.15 156.76 137.22 L 157.15 137.30 Q 157.85 137.45 157.81 136.73 L 157.16 126.50" data-c-stroke="725d46"/><path stroke="#afaa97" d="M 261.20 238.36 Q 253.47 244.82 247.60 251.60 Q 238.60 262.01 228.98 274.33 C 223.72 281.05 219.07 288.14 214.36 295.04 Q 205.24 308.42 196.79 324.07 Q 186.77 342.62 178.20 361.78 Q 168.31 383.88 162.33 407.20 Q 160.56 414.09 159.52 421.17 Q 158.84 425.81 157.81 430.15 Q 157.67 430.75 157.44 431.24 Q 157.10 431.95 156.85 431.20 L 156.67 430.67" data-c-stroke="afaa97"/><path stroke="#e0c8a5" d="M156.8 420.34Q157.58 417.5 157.34 414.6 157.32 414.34 157.58 414.32 157.74 414.31 157.79 414.18 157.86 413.98 157.86 413.75C157.87 398.5 157.94 384.54 157.52 368.01Q157.2 355.13 157.45 342.12M161.87 297.5Q165.17 274.95 177.31 255.61 178.05 254.43 178.78 253.22 182.55 246.98 186.8 241.13" data-c-stroke="e0c8a5"/><path stroke="#afaa97" d="M 186.80 241.13 L 190.31 236.01" data-c-stroke="afaa97"/><path stroke="#ae9876" d="M156.51 407.71Q156.42 385.92 156.64 374.25 156.65 373.43 156.45 372.88 156.28 372.43 156.27 371.94L155.94 349.55M186.8 241.13 186.51 240.04" data-c-stroke="ae9876"/><path stroke="#736f67" d="M 116.96 229.84 Q 122.99 236.14 129.18 244.46 C 136.66 254.51 142.03 266.13 146.12 277.67 Q 152.40 295.44 153.06 315.99 Q 153.17 319.46 153.94 323.13 C 154.78 327.14 154.45 331.39 154.90 335.51 Q 154.91 335.58 154.97 335.57 L 155.23 335.56 Q 155.41 335.55 155.41 335.37 Q 155.58 322.00 154.86 313.24 Q 154.18 304.93 153.70 296.84 C 153.38 291.54 152.63 286.31 152.01 281.03 C 151.37 275.57 149.72 270.44 148.31 265.25 C 145.83 256.07 140.64 247.47 135.09 240.16 Q 126.83 229.30 114.13 221.56 Q 109.89 218.98 104.90 217.77 A 0.48 0.47 -78.4 0 0 104.32 218.16 Q 104.26 218.51 104.56 218.69 C 109.05 221.47 112.10 224.75 116.96 229.84" data-c-stroke="736f67"/></g><path fill="#7d7a69" d="M 154.77 1.88 Q 154.64 6.89 153.17 10.93 Q 152.26 5.62 153.77 1.25 Q 154.30 -0.28 154.71 1.29 Q 154.76 1.48 154.77 1.88 Z" data-c-fill="7d7a69"/><path fill="#181a1b" d="M 154.77 1.88 L 155.75 12.15 Q 154.95 17.10 155.41 21.98 Q 156.10 29.34 156.14 30.57 C 156.55 46.48 158.52 60.68 160.77 77.75 Q 161.20 80.96 163.26 91.25 Q 160.28 92.04 162.87 95.58 Q 163.23 96.08 163.26 96.68 Q 163.39 99.47 163.57 102.52 C 163.62 103.46 164.31 104.01 164.37 104.90 Q 164.59 107.98 165.60 111.07 Q 166.85 114.88 168.49 118.50 Q 169.19 120.05 169.44 121.65 Q 169.59 122.68 169.89 123.60 Q 173.90 135.81 178.38 144.51 Q 179.00 145.71 179.39 146.81 Q 179.99 148.46 180.71 149.85 Q 182.34 153.03 184.16 156.09 Q 187.07 160.98 189.59 165.43 Q 192.65 170.83 197.58 177.63 Q 198.77 179.27 200.17 180.74 Q 201.61 182.25 202.76 183.91 Q 204.27 186.11 206.35 188.30 Q 208.93 191.04 211.34 194.16 C 212.35 195.46 213.71 196.41 214.82 197.65 Q 215.99 198.95 217.46 200.00 Q 219.62 201.52 221.70 203.30 Q 222.72 204.18 224.42 204.95 A 1.02 1.02 0.0 0 1 224.50 206.76 Q 224.01 207.04 223.48 207.13 C 219.68 207.80 216.24 208.11 212.22 207.53 Q 195.59 205.13 184.03 193.36 Q 182.03 191.32 179.00 187.62 Q 176.51 184.58 174.74 180.97 Q 169.64 170.62 166.62 158.26 Q 165.76 154.72 164.34 151.83 Q 162.71 148.48 161.47 144.88 C 161.00 143.49 161.13 142.10 160.79 140.73 Q 160.28 138.66 160.21 137.68 Q 159.88 133.07 159.32 128.12 Q 159.14 126.52 157.97 125.39 Q 157.53 124.96 157.30 125.53 Q 157.16 125.90 157.16 126.50 Q 156.82 126.09 156.93 125.24 Q 157.01 124.60 156.84 124.08 Q 156.64 123.48 156.50 124.10 Q 156.13 125.77 156.54 127.75 L 155.97 123.91 Q 155.94 123.68 155.70 123.68 L 155.33 123.68 Q 155.11 123.68 155.11 123.90 Q 154.83 135.70 152.26 144.60 Q 150.10 152.13 147.06 160.28 C 143.47 169.92 137.74 178.97 131.05 186.65 C 124.55 194.10 113.97 199.58 104.72 202.36 Q 104.41 202.45 97.54 205.00 Q 92.72 206.79 87.03 207.20 Q 84.49 207.38 82.12 207.78 Q 79.69 208.18 77.40 208.12 Q 76.19 208.09 76.21 206.97 Q 76.22 206.54 75.80 206.45 L 74.18 206.12 Q 87.52 198.62 95.79 189.79 Q 106.11 178.78 109.44 174.25 Q 122.02 157.18 130.49 137.75 Q 133.39 131.11 137.55 117.50 Q 140.72 107.14 142.01 101.17 C 142.28 99.93 142.97 98.90 143.16 97.71 Q 143.96 92.77 145.35 88.00 Q 146.69 83.40 147.28 78.96 Q 147.90 74.22 148.60 69.75 Q 149.08 66.62 149.06 63.54 Q 149.03 61.18 149.86 56.30 Q 150.88 50.27 151.95 31.68 Q 152.02 30.47 152.77 21.33 Q 153.20 16.08 153.17 10.93 Q 154.64 6.89 154.77 1.88 Z" data-c-fill="181a1b"/><path fill="#e0b684" fill-opacity=".996" d="M 155.75 12.15 Q 157.13 23.56 157.15 34.91 Q 157.16 38.51 157.65 41.95 Q 158.14 45.37 158.34 49.13 Q 158.61 54.16 159.50 58.63 Q 160.58 64.03 161.13 68.12 Q 161.93 74.03 162.77 79.89 Q 163.53 85.22 165.00 91.51 C 167.12 100.63 168.97 109.86 171.85 118.68 Q 178.70 139.64 189.48 159.04 Q 188.89 158.70 188.62 160.65 Q 179.99 145.77 174.15 129.71 Q 172.46 125.05 170.76 120.40 Q 168.94 115.42 167.80 110.95 Q 165.38 101.50 163.26 91.25 Q 161.20 80.96 160.77 77.75 C 158.52 60.68 156.55 46.48 156.14 30.57 Q 156.10 29.34 155.41 21.98 Q 154.95 17.10 155.75 12.15 Z" data-c-fill="e0b684" data-o-fill=".996"/><path fill="#3b71a3" fill-opacity=".996" d="M 149.06 63.54 Q 149.08 66.62 148.60 69.75 Q 147.90 74.22 147.28 78.96 Q 146.69 83.40 145.35 88.00 Q 143.96 92.77 143.16 97.71 C 142.97 98.90 142.28 99.93 142.01 101.17 Q 140.72 107.14 137.55 117.50 Q 133.39 131.11 130.49 137.75 Q 122.02 157.18 109.44 174.25 Q 106.11 178.78 95.79 189.79 Q 87.52 198.62 74.18 206.12 Q 67.33 209.55 62.25 210.86 Q 56.31 212.41 47.21 213.56 Q 41.01 214.35 37.55 213.61 Q 33.70 212.78 30.00 212.28 Q 28.28 212.05 25.94 210.45 C 34.52 213.06 43.28 213.80 52.04 211.86 Q 56.38 210.90 59.93 210.11 C 68.84 208.14 78.57 203.14 86.04 197.12 Q 95.55 189.45 101.61 182.31 Q 108.02 174.76 114.75 164.79 Q 120.90 155.69 127.63 140.43 Q 130.57 133.76 134.41 123.65 Q 136.40 118.39 138.25 111.45 Q 139.89 105.32 141.64 99.13 Q 142.85 94.89 143.79 90.73 Q 144.75 86.48 145.73 82.42 Q 146.63 78.68 147.32 72.98 Q 147.90 68.22 149.06 63.54 Z" data-c-fill="3b71a3" data-o-fill=".996"/><path fill="#000000" d="M 163.26 91.25 Q 165.38 101.50 167.80 110.95 Q 168.94 115.42 170.76 120.40 Q 172.46 125.05 174.15 129.71 Q 179.99 145.77 188.62 160.65 Q 190.59 163.87 192.76 167.12 Q 195.87 171.77 198.92 176.09 C 204.52 184.02 210.89 191.65 218.52 197.85 C 224.02 202.32 229.36 206.98 235.42 210.17 Q 236.28 210.62 235.31 210.72 Q 215.83 212.69 201.46 225.68 Q 195.81 230.78 190.31 236.01 L 188.55 236.35 Q 188.04 234.64 189.07 233.32 Q 193.53 227.64 198.10 221.64 Q 200.82 218.08 207.19 213.22 C 208.63 212.13 210.16 211.65 211.41 210.27 A 0.33 0.32 -64.7 0 0 211.22 209.73 C 208.51 209.29 205.98 209.22 203.32 208.22 Q 196.22 205.56 193.98 204.28 Q 181.39 197.09 174.53 186.96 Q 167.22 176.19 162.31 160.14 C 161.44 157.30 161.12 154.39 160.36 151.58 C 159.22 147.44 158.99 143.12 157.78 139.08 Q 156.79 135.76 156.79 139.23 L 156.71 283.30 Q 156.64 289.03 156.27 294.75 C 155.91 300.22 155.90 305.41 156.14 310.71 Q 156.19 311.85 156.81 312.81 Q 157.18 313.39 157.26 312.70 Q 158.13 305.08 159.56 299.26 Q 160.01 297.45 158.91 296.81 Q 159.64 296.44 159.98 295.45 Q 160.03 295.67 160.08 295.82 Q 160.23 296.30 160.64 296.00 Q 160.93 295.78 161.28 295.84 Q 161.81 295.93 161.83 296.47 L 161.87 297.50 Q 160.35 305.58 160.16 313.77 C 160.08 317.51 159.48 321.06 159.29 324.76 Q 159.10 328.62 158.50 332.81 Q 157.82 337.50 157.45 342.12 Q 156.92 344.35 156.60 346.54 Q 156.59 346.62 156.55 346.56 Q 156.52 346.52 156.49 346.49 Q 156.38 346.35 156.36 346.54 Q 156.14 348.03 155.94 349.55 Q 155.52 361.27 155.82 373.01 Q 156.26 390.35 156.51 407.71 L 156.80 420.34 L 156.67 430.67 L 154.46 486.75 C 154.02 481.87 152.77 477.20 152.97 472.37 Q 153.38 462.31 152.23 453.89 Q 146.67 412.97 131.21 374.41 C 119.80 345.93 104.12 317.34 86.10 290.08 Q 59.52 249.87 24.68 217.07 Q 15.99 208.90 7.08 200.95 C 5.10 199.18 3.51 197.12 2.34 194.75 Q 1.95 193.94 2.56 194.60 Q 12.34 205.05 25.94 210.45 Q 28.28 212.05 30.00 212.28 Q 33.70 212.78 37.55 213.61 Q 41.01 214.35 47.21 213.56 Q 56.31 212.41 62.25 210.86 Q 67.33 209.55 74.18 206.12 L 75.80 206.45 Q 76.22 206.54 76.21 206.97 Q 76.19 208.09 77.40 208.12 Q 79.69 208.18 82.12 207.78 Q 84.49 207.38 87.03 207.20 Q 92.72 206.79 97.54 205.00 Q 104.41 202.45 104.72 202.36 C 113.97 199.58 124.55 194.10 131.05 186.65 C 137.74 178.97 143.47 169.92 147.06 160.28 Q 150.10 152.13 152.26 144.60 Q 154.83 135.70 155.11 123.90 Q 155.11 123.68 155.33 123.68 L 155.70 123.68 Q 155.94 123.68 155.97 123.91 L 156.54 127.75 L 156.42 136.80 Q 156.42 137.15 156.76 137.22 L 157.15 137.30 Q 157.85 137.45 157.81 136.73 L 157.16 126.50 Q 157.16 125.90 157.30 125.53 Q 157.53 124.96 157.97 125.39 Q 159.14 126.52 159.32 128.12 Q 159.88 133.07 160.21 137.68 Q 160.28 138.66 160.79 140.73 C 161.13 142.10 161.00 143.49 161.47 144.88 Q 162.71 148.48 164.34 151.83 Q 165.76 154.72 166.62 158.26 Q 169.64 170.62 174.74 180.97 Q 176.51 184.58 179.00 187.62 Q 182.03 191.32 184.03 193.36 Q 195.59 205.13 212.22 207.53 C 216.24 208.11 219.68 207.80 223.48 207.13 Q 224.01 207.04 224.50 206.76 A 1.02 1.02 0.0 0 0 224.42 204.95 Q 222.72 204.18 221.70 203.30 Q 219.62 201.52 217.46 200.00 Q 215.99 198.95 214.82 197.65 C 213.71 196.41 212.35 195.46 211.34 194.16 Q 208.93 191.04 206.35 188.30 Q 204.27 186.11 202.76 183.91 Q 201.61 182.25 200.17 180.74 Q 198.77 179.27 197.58 177.63 Q 192.65 170.83 189.59 165.43 Q 187.07 160.98 184.16 156.09 Q 182.34 153.03 180.71 149.85 Q 179.99 148.46 179.39 146.81 Q 179.00 145.71 178.38 144.51 Q 173.90 135.81 169.89 123.60 Q 169.59 122.68 169.44 121.65 Q 169.19 120.05 168.49 118.50 Q 166.85 114.88 165.60 111.07 Q 164.59 107.98 164.37 104.90 C 164.31 104.01 163.62 103.46 163.57 102.52 Q 163.39 99.47 163.26 96.68 Q 163.23 96.08 162.87 95.58 Q 160.28 92.04 163.26 91.25 Z M 116.96 229.84 Q 122.99 236.14 129.18 244.46 C 136.66 254.51 142.03 266.13 146.12 277.67 Q 152.40 295.44 153.06 315.99 Q 153.17 319.46 153.94 323.13 C 154.78 327.14 154.45 331.39 154.90 335.51 Q 154.91 335.58 154.97 335.57 L 155.23 335.56 Q 155.41 335.55 155.41 335.37 Q 155.58 322.00 154.86 313.24 Q 154.18 304.93 153.70 296.84 C 153.38 291.54 152.63 286.31 152.01 281.03 C 151.37 275.57 149.72 270.44 148.31 265.25 C 145.83 256.07 140.64 247.47 135.09 240.16 Q 126.83 229.30 114.13 221.56 Q 109.89 218.98 104.90 217.77 A 0.48 0.47 -78.4 0 0 104.32 218.16 Q 104.26 218.51 104.56 218.69 C 109.05 221.47 112.10 224.75 116.96 229.84 Z" data-c-fill="50508"/><path fill="#e0b684" fill-opacity=".996" d="M 157.16 126.50 L 157.81 136.73 Q 157.85 137.45 157.15 137.30 L 156.76 137.22 Q 156.42 137.15 156.42 136.80 L 156.54 127.75 Q 156.13 125.77 156.50 124.10 Q 156.64 123.48 156.84 124.08 Q 157.01 124.60 156.93 125.24 Q 156.82 126.09 157.16 126.50 Z" data-c-fill="e0b684" data-o-fill=".996"/><path fill="#e0d9c5" d="M189.48 159.04Q197.24 172.09 207.11 183.89 213.11 191.06 219.3 195.92 225.58 200.84 232.34 206.01C234.28 207.49 236.58 208.46 238.39 210.05Q243.3 214.39 250.87 216.03 278.93 222.09 298.44 203.28C300.86 200.94 303.29 198.81 306.31 197.22Q308.63 196.01 306.71 197.8C305.02 199.38 303.06 200.41 301.39 202.06 298.38 205.03 295.55 207.97 292.12 210.52Q280.78 218.92 277.33 221.83 270.04 227.96 261.2 238.36 253.47 244.82 247.6 251.6 238.6 262.01 228.98 274.33C223.72 281.05 219.07 288.14 214.36 295.04Q205.24 308.42 196.79 324.07 186.77 342.62 178.2 361.78 168.31 383.88 162.33 407.2 160.56 414.09 159.52 421.17 158.84 425.81 157.81 430.15 157.67 430.75 157.44 431.24 157.1 431.95 156.85 431.2L156.67 430.67 156.8 420.34Q157.58 417.5 157.34 414.6 157.32 414.34 157.58 414.32 157.74 414.31 157.79 414.18 157.86 413.98 157.86 413.75C157.87 398.5 157.94 384.54 157.52 368.01Q157.2 355.13 157.45 342.12 157.82 337.5 158.5 332.81 159.1 328.62 159.29 324.76C159.48 321.06 160.08 317.51 160.16 313.77Q160.35 305.58 161.87 297.5 165.17 274.95 177.31 255.61 178.05 254.43 178.78 253.22 182.55 246.98 186.8 241.13L190.31 236.01Q195.81 230.78 201.46 225.68 215.83 212.69 235.31 210.72 236.28 210.62 235.42 210.17C229.36 206.98 224.02 202.32 218.52 197.85 210.89 191.65 204.52 184.02 198.92 176.09Q195.87 171.77 192.76 167.12 190.59 163.87 188.62 160.65 188.89 158.7 189.48 159.04ZM116.96 229.84C112.1 224.75 109.05 221.47 104.56 218.69Q104.26 218.51 104.32 218.16A.48.47-78.4 0 1 104.9 217.77Q109.89 218.98 114.13 221.56 126.83 229.3 135.09 240.16C140.64 247.47 145.83 256.07 148.31 265.25 149.72 270.44 151.37 275.57 152.01 281.03 152.63 286.31 153.38 291.54 153.7 296.84Q154.18 304.93 154.86 313.24 155.58 322 155.41 335.37 155.41 335.55 155.23 335.56L154.97 335.57Q154.91 335.58 154.9 335.51C154.45 331.39 154.78 327.14 153.94 323.13Q153.17 319.46 153.06 315.99 152.4 295.44 146.12 277.67C142.03 266.13 136.66 254.51 129.18 244.46Q122.99 236.14 116.96 229.84Z" data-c-fill="e0d9c5"/><path fill="#7d7a69" d="M190.31 236.01 186.8 241.13 186.51 240.04 188.55 236.35 190.31 236.01ZM261.2 238.36Q259.32 241.05 255.13 245.12 250.76 249.35 243.79 259.23C241.64 262.27 239.02 265.05 236.94 268.26 230.11 278.79 223.13 289.24 217.15 300.18Q196.48 338.02 181.93 373.84 169.85 403.6 162.83 435.59C161.75 440.5 159.26 444.99 158.9 450.03Q158.41 456.91 157.4 464.14 156.44 471.08 156.48 482.86 156.49 485.17 155.87 487.5 155.79 487.77 155.59 487.96 155.42 488.12 155.21 488.14 154.68 488.18 154.6 487.65L154.46 486.75 156.67 430.67 156.85 431.2Q157.1 431.95 157.44 431.24 157.67 430.75 157.81 430.15 158.84 425.81 159.52 421.17 160.56 414.09 162.33 407.2 168.31 383.88 178.2 361.78 186.77 342.62 196.79 324.07 205.24 308.42 214.36 295.04C219.07 288.14 223.72 281.05 228.98 274.33Q238.6 262.01 247.6 251.6 253.47 244.82 261.2 238.36Z" data-c-fill="7d7a69"/><path fill="#e0b684" fill-opacity=".996" d="M 186.51 240.04 L 186.80 241.13 Q 182.55 246.98 178.78 253.22 Q 178.05 254.43 177.31 255.61 Q 165.17 274.95 161.87 297.50 L 161.83 296.47 Q 161.81 295.93 161.28 295.84 Q 160.93 295.78 160.64 296.00 Q 160.23 296.30 160.08 295.82 Q 160.03 295.67 159.98 295.45 Q 161.63 289.83 163.17 284.14 Q 164.99 277.42 166.85 273.02 Q 174.41 255.20 186.51 240.04 Z" data-c-fill="e0b684" data-o-fill=".996"/><path fill="#e0d9c5" d="M 156.71 283.30 Q 156.80 290.85 156.98 292.75 Q 157.19 294.99 158.91 296.81 Q 160.01 297.45 159.56 299.26 Q 158.13 305.08 157.26 312.70 Q 157.18 313.39 156.81 312.81 Q 156.19 311.85 156.14 310.71 C 155.90 305.41 155.91 300.22 156.27 294.75 Q 156.64 289.03 156.71 283.30 Z" data-c-fill="e0d9c5"/><path fill="#e0b684" fill-opacity=".996" d="M 157.45 342.12 Q 157.20 355.13 157.52 368.01 C 157.94 384.54 157.87 398.50 157.86 413.75 Q 157.86 413.98 157.79 414.18 Q 157.74 414.31 157.58 414.32 Q 157.32 414.34 157.34 414.60 Q 157.58 417.50 156.80 420.34 L 156.51 407.71 Q 156.42 385.92 156.64 374.25 Q 156.65 373.43 156.45 372.88 Q 156.28 372.43 156.27 371.94 L 155.94 349.55 Q 156.14 348.03 156.36 346.54 Q 156.38 346.35 156.49 346.49 Q 156.52 346.52 156.55 346.56 Q 156.59 346.62 156.60 346.54 Q 156.92 344.35 157.45 342.12 Z" data-c-fill="e0b684" data-o-fill=".996"/><path fill="#7d7a69" d="M 155.94 349.55 L 156.27 371.94 Q 156.28 372.43 156.45 372.88 Q 156.65 373.43 156.64 374.25 Q 156.42 385.92 156.51 407.71 Q 156.26 390.35 155.82 373.01 Q 155.52 361.27 155.94 349.55 Z" data-c-fill="7d7a69"/></svg>